<?xml version="1.0" encoding="UTF-8" standalone="no"?>
<!DOCTYPE svg PUBLIC "-//W3C//DTD SVG 1.1//EN" "http://www.w3.org/Graphics/SVG/1.1/DTD/svg11.dtd">
<svg width="100%" height="100%" viewBox="0 0 512 512" version="1.1" xmlns="http://www.w3.org/2000/svg" xmlns:xlink="http://www.w3.org/1999/xlink" xml:space="preserve" xmlns:serif="http://www.serif.com/" style="fill-rule:evenodd;clip-rule:evenodd;stroke-linejoin:round;stroke-miterlimit:1.41421;">
    <g transform="matrix(1.82336,0,0,1.82336,-260.632,16.119)">
        <path d="M153.69,205.247L153.69,175.294C153.69,172.2 155.236,170.653 158.33,170.653L187.158,170.653C188.565,170.653 189.69,171.075 190.533,171.919C191.377,172.763 191.799,173.888 191.799,175.294L191.799,197.232C191.799,204.919 195.643,208.763 203.33,208.763L218.236,208.763C225.924,208.763 229.768,204.919 229.768,197.232L229.768,20.888C229.768,17.888 231.315,16.388 234.408,16.388L264.361,16.388C267.455,16.388 269.002,17.888 269.002,20.888L269.002,205.247C269.002,218.747 265.44,229.036 258.315,236.114C251.19,243.193 240.924,246.732 227.518,246.732L195.174,246.732C181.58,246.732 171.268,243.216 164.236,236.185C157.205,229.153 153.69,218.841 153.69,205.247Z" style="fill:rgb(215,0,34);fill-opacity:0.6;fill-rule:nonzero;"/>
        <path d="M297.69,205.247L297.69,175.013C297.69,171.919 299.236,170.372 302.33,170.372L332.283,170.372C335.377,170.372 336.924,171.919 336.924,175.013L336.924,197.232C336.924,204.919 340.768,208.763 348.455,208.763L362.236,208.763C369.924,208.763 373.768,204.919 373.768,197.232L373.768,158.841L305.565,136.482C300.315,134.794 297.69,131.232 297.69,125.794L297.69,57.872C297.69,44.372 301.252,34.083 308.377,27.005C315.502,19.927 325.768,16.388 339.174,16.388L371.518,16.388C385.111,16.388 395.424,19.903 402.455,26.935C409.486,33.966 413.002,44.278 413.002,57.872L413.002,88.388C413.002,91.388 411.455,92.888 408.361,92.888L378.408,92.888C375.315,92.888 373.768,91.388 373.768,88.388L373.768,65.888C373.768,58.2 369.924,54.357 362.236,54.357L348.455,54.357C344.799,54.357 341.963,55.364 339.947,57.38C337.932,59.396 336.924,62.232 336.924,65.888L336.924,105.544L405.408,128.044C410.471,130.107 413.002,133.669 413.002,138.732L413.002,205.247C413.002,218.841 409.486,229.153 402.455,236.185C395.424,243.216 385.111,246.732 371.518,246.732L339.174,246.732C325.768,246.732 315.502,243.193 308.377,236.114C301.252,229.036 297.69,218.747 297.69,205.247Z" style="fill:rgb(215,0,34);fill-opacity:0.6;fill-rule:nonzero;"/>
    </g>
</svg>
